<svg version="1.2" xmlns="http://www.w3.org/2000/svg" viewBox="0 0 1524 600" width="1524" height="600">
	<title>logo_yamaha_waves-svg</title>
	<style>
		.s0 { fill: #ffffff } 
	</style>
	<path id="Layer" fill-rule="evenodd" class="s0" d="m230.2 12.6c20.1 8.3 38.4 20.6 53.8 36 15.4 15.3 27.6 33.6 35.9 53.7 8.4 20.1 12.7 41.7 12.7 63.5 0 67-40.4 127.5-102.4 153.1-61.9 25.7-133.2 11.5-180.6-35.9-47.5-47.4-61.6-118.7-36-180.7 25.7-61.9 86.1-102.3 153.2-102.3 21.7 0 43.3 4.3 63.4 12.6zm-7.1 289c17.8-7.4 34-18.2 47.7-31.9 13.6-13.6 24.4-29.8 31.8-47.7 7.4-17.8 11.2-36.9 11.2-56.2 0-59.5-35.8-113.2-90.8-135.9-54.9-22.8-118.2-10.2-160.3 31.8-42 42.1-54.6 105.4-31.8 160.3 22.7 55 76.4 90.8 135.9 90.8 19.3 0 38.4-3.8 56.3-11.2zm64.5-68.3q0.2 0.4 0.2 0.8 0.1 0.4 0 0.8-0.1 0.4-0.3 0.7-0.2 0.3-0.5 0.6-0.3 0.3-0.6 0.4-0.4 0.2-0.8 0.2-0.4 0.1-0.8 0l-36.4-6.8q-0.1 0-0.3-0.1-0.2 0-0.3-0.1-0.2 0-0.3-0.1-0.2-0.1-0.3-0.2-0.5-0.2-0.8-0.6-0.4-0.3-0.7-0.7-0.2-0.5-0.4-1-0.2-0.4-0.2-0.9-0.1-1.6-0.6-3.1-0.5-1.4-1.3-2.8-0.9-1.3-2-2.4-1.1-1-2.5-1.8-1.2-0.7-2.5-1.1-1.3-0.4-2.7-0.6-1.4-0.1-2.7 0.1-1.4 0.1-2.7 0.6-3.3 1.2-6.8 1.6-3.5 0.4-7 0.1-3.6-0.3-6.9-1.4-3.4-1.1-6.4-2.8l-10.8-6.2v70.6h-15.2v-79.5l-8.2-4.8-8.3 4.8v79.5h-15.2v-70.6l-10.8 6.2q-3 1.7-6.4 2.8-3.3 1.1-6.8 1.4-3.5 0.3-7-0.1-3.5-0.4-6.9-1.6-1.3-0.5-2.6-0.7-1.4-0.2-2.8-0.1-1.3 0.1-2.7 0.5-1.3 0.4-2.5 1.1-1.4 0.8-2.5 1.8-1.1 1.1-1.9 2.4-0.9 1.4-1.4 2.8-0.4 1.5-0.6 3.1 0 0.6-0.3 1.3-0.3 0.6-0.7 1.1-0.5 0.5-1.1 0.8-0.5 0.4-1.2 0.5l-36.4 6.8c-0.5 0.1-1.1 0.1-1.6-0.1-0.4-0.3-0.9-0.6-1.1-1.1-0.3-0.5-0.4-1-0.4-1.6 0.1-0.5 0.3-1 0.7-1.4l24.1-28.1q0.1-0.1 0.2-0.2 0.1-0.2 0.3-0.3 0.1-0.1 0.2-0.2 0.2-0.1 0.3-0.2 0.5-0.2 1-0.3 0.4-0.1 0.9-0.1 0.6 0 1 0.1 0.5 0.1 1 0.3 1.4 0.7 2.9 1 1.5 0.3 3.1 0.2 1.6 0 3.1-0.5 1.5-0.4 2.8-1.2 1.2-0.7 2.2-1.6 1.1-0.9 1.9-2 0.7-1.2 1.3-2.5 0.5-1.2 0.8-2.6 0.6-3.5 2-6.7 1.4-3.3 3.4-6.1 2-2.9 4.6-5.3 2.6-2.4 5.7-4.1l10.8-6.2-61.3-35.4 7.6-13.2 68.8 39.8 8.3-4.8v-9.6l-68.8-39.7 7.6-13.1 61.2 35.3v-12.4q0-3.5 0.8-7 0.7-3.4 2.2-6.6 1.5-3.2 3.6-6 2.1-2.8 4.8-5.1c1.5-1.3 2.7-2.9 3.4-4.7 0.8-1.8 1.2-3.8 1.1-5.7-0.1-2-0.7-3.9-1.6-5.6-1-1.8-2.3-3.2-4-4.4q-0.4-0.2-0.7-0.6-0.4-0.4-0.6-0.8-0.2-0.5-0.4-1-0.1-0.5-0.1-1 0-0.2 0-0.3 0.1-0.2 0.1-0.4 0-0.1 0-0.3 0.1-0.2 0.1-0.3l12.3-34.9c0.2-0.5 0.5-1 1-1.3 0.4-0.3 0.9-0.5 1.5-0.5 0.5 0 1 0.2 1.5 0.5 0.4 0.3 0.7 0.8 0.9 1.3l12.3 34.9q0 0.1 0.1 0.3 0 0.2 0 0.3 0.1 0.2 0.1 0.4 0 0.1 0 0.3 0 0.5-0.1 1-0.1 0.5-0.4 1-0.2 0.4-0.5 0.8-0.4 0.4-0.8 0.6c-1.6 1.2-3 2.6-3.9 4.4-1 1.7-1.6 3.6-1.7 5.6-0.1 1.9 0.3 3.9 1.1 5.7 0.7 1.8 1.9 3.4 3.4 4.7q2.7 2.3 4.8 5.1 2.2 2.8 3.6 6 1.5 3.2 2.2 6.6 0.8 3.5 0.8 7v12.4l61.3-35.3 7.6 13.1-68.9 39.7v9.7l8.3 4.7 68.9-39.8 7.5 13.2-61.3 35.4 10.8 6.4q3 1.8 5.7 4.2 2.6 2.3 4.6 5.2 2 2.9 3.4 6.1 1.4 3.3 2 6.7 0.3 1.4 0.8 2.7 0.6 1.3 1.4 2.4 0.8 1.1 1.8 2 1 1 2.2 1.7 1.4 0.7 2.9 1.2 1.5 0.4 3 0.5 1.6 0 3.1-0.3 1.5-0.3 2.9-0.9 0.5-0.3 1-0.4 0.5-0.1 1-0.1 0.5 0 1 0.1 0.5 0.1 0.9 0.4 0.2 0.1 0.3 0.2 0.1 0.1 0.3 0.2 0.1 0.1 0.2 0.2 0.1 0.1 0.3 0.2l24 28.2q0.3 0.3 0.4 0.6zm-111.3-73.1l-9.5-5.5-9.6 5.5v11l9.6 5.5 9.5-5.4zm-17.8-26.5l8.3 4.9 8.2-4.9v-23.3c0.2-2.2-0.6-4.5-2.2-6.1-1.6-1.7-3.8-2.6-6-2.6-2.3 0-4.5 0.9-6.1 2.6-1.5 1.6-2.3 3.9-2.2 6.1zm-15 45.5l-8.3-4.8-20.4 11.7c-2 1-3.6 2.8-4.3 5-0.7 2.1-0.5 4.5 0.7 6.5 1.1 2 3 3.5 5.3 4 2.2 0.5 4.5 0.1 6.4-1.2l20.4-11.6zm78.3 18.1q0.8-1.4 1-3 0.2-1.7-0.2-3.3-0.4-1.5-1.4-2.9-1-1.3-2.5-2.1l-20.2-11.6-8.4 4.8v9.7l20.4 11.7c0.9 0.5 2 0.8 3 1 1.1 0.1 2.2 0 3.3-0.3 1-0.3 2-0.8 2.9-1.4 0.8-0.7 1.6-1.6 2.1-2.5zm1048.7-65.4v-110.6h51.6v288.6h-51.6v-126.7h-55.4v126.7h-50.5v-288.6h50.5v110.6zm-777.8-110.6h47.2l-58.1 171.2v117.4h-56.2v-111.6l-56.1-177h50.4l34.6 112.4zm340 137.3l24.2-137.3h82.3v288.6h-53.1v-220.6l-34.2 192.2h-42.3l-38.6-189.1v217.5h-45.2v-288.6h78.9zm691 151.3h-51.5l-10.9-67.1h-58.1l-11.2 67.1h-46.8l52.8-288.5h78.1zm-70.1-115.2l-20.9-129-21.5 129zm-360.5-173.3l47.6 288.5h-51.5l-10.8-67.1h-58.2l-11.2 67.1h-46.8l52.8-288.5zm-22.5 173.3l-20.9-129-21.5 129zm-416.4-173.3l47.7 288.5h-51.6l-10.8-67.1h-58.2l-11.2 67.1h-46.8l52.8-288.5zm-22.6 173.3l-20.8-129-21.6 129zm737.1 361.6c-0.7 0.1-7.2 0.4-51.1-0.1-1 0-1.9 0.1-1.6 0.4h1.6c0.9 0 1.8 0.5 0 0.5l-6.4-0.9c-35 2.4-87.6 2.3-127.7 4.3-8.5 0.4-24.9 1.4-12.8-0.3-23.2-0.7-36.4 1.4-51.6 1.3q0.4 0.1 0.5 0.3l-97.5 1.4c-51.6 0.9-104.1 5-153.2 6.7-23.5 0.8-55.1 1.5-81.4 2.9l-99.1 3.6-167.7 7.1c-43.4 1.3-88.7 4.8-128 6.6-67.6 2.2-110.3 11.3-171.4 8.2-4.4-1.2 5.5-7.7-10.8-6.8-1.7 0-9-0.6-4.3-1.9-8.8 0.1-0.7-2.2 4.6-3.5-1.1-0.4-6.2 0.8-6.5 0 10.2-2.1 5.8-4.2 14.8-6 0.6 0.1 1.6 0.1 0.8-0.1q6.1-1.4 12.2-2.7 6.1-1.2 12.3-2.3 6.2-1.1 12.3-2 6.2-1 12.4-1.8c15.2-2.8 27.5-3.4 38.3-4.4l72-6.1c29.1-1.9 60.9-2.7 91.4-3.3l320.3-11.4 62.5-1 116.8-3.5 104-2.2c40-0.9 75.1-0.9 110.5-0.2-3.3 1.1-16.1-0.1-19.2 1.1 45-0.9 89.5-0.3 129.6-0.3 31.2 0.4 59.9-1.3 88 0.4 8.3 0.4 14.9 2.1 23.9 2.9 26.1 2.3 57.1 1.2 80 3.7-2.5 1-13.8-0.7-16 0.3 17.1 1.4 36.5 2.3 52.5 4.1-2.4 1.5-14.3 0.1-16 1.9 2.4 0.3 8.3-0.2 8 0.7-29.9-0.4-67.1-1.4-87.8-0.9-16-0.6-47.2-1.7-73.5-1.2 46 2.6 85.5 0.7 118.2 3.6-39.5 0.4-71.4-1.2-103.9 0.9zm-1148.8 23.7q-0.4 0.1-0.8 0.1c-0.4 0-0.5-0.1 0.8-0.1zm894.9-18.5q2.2 0 4.3 0c-1-0.1-2.9 0-4.3 0zm253.9-5.3v0.1c0.2 0 0-0.1 0-0.1zm-917-55.8c-0.1 13.3 0.6 18.3 1.5 20.3q-1.6 1.6-3.5 2.9-1.9 1.4-3.9 2.4-2.1 1-4.2 1.7-2.2 0.7-4.5 1-1.3 0.1-2.7 0-1.3-0.2-2.6-0.7-1.3-0.4-2.4-1.1-1.2-0.7-2.1-1.6c-1.7-3.9-1.1-11.4-0.8-15.6 1.5-23.2 9.6-60.3 13-78.7q0.1-0.6-0.2-1.2-0.2-0.5-0.8-0.8-0.5-0.3-1.1-0.2-0.6 0-1.1 0.4c-35.6 39.9-62 73.6-66.8 84.9q-1.9 1-3.9 1.9-1.9 1-3.9 1.8-1.9 0.8-3.9 1.5-2 0.7-4.1 1.4-1.3-0.5-2.6-1.1-1.3-0.6-2.5-1.4-1.1-0.8-2.2-1.7-1.1-1-2-2.1 0-1.7 0-3.4-0.1-1.7-0.2-3.5-0.1-1.7-0.2-3.4-0.1-1.7-0.3-3.5c-1.7-16.9 0.5-50.2-1.3-62.2-0.3-1.3-2.2-1.8-3.5-0.3-17.5 29.1-37 62.5-51.6 85.6q-1.1 1.2-2.4 2.2-1.3 1-2.7 1.9-1.4 0.8-2.9 1.5-1.5 0.6-3.1 1c-3.7-0.4-8.7-9.4-7.1-12.3 12.1-19.7 12.8-19.1 32.5-50.7 17.5-28.2 29.6-47.9 33.5-56.8 1.7-3.8 7.6-5.6 12.5-6.7q1.6 0.4 3.2 1 1.5 0.5 3 1.1 1.6 0.7 3 1.4 1.5 0.7 2.9 1.6c4.5 17.6 0.3 55.6 3.3 75.8 0.4 2.2 2.1 2.4 3.6 0.9 21.3-24.9 54.2-59.7 75-83.2q2.1-1.1 4.3-1.9 2.2-0.9 4.4-1.5 2.3-0.6 4.7-0.9 2.3-0.4 4.6-0.5c3 2.2 7.9 6.8 8.8 11-6.7 16.6-16.3 66.6-16.7 91.8zm193.2-27.3c21.7-12.1 38.4-22.6 51.1-34.2q1.2 0 2.4 0 1.3 0.1 2.5 0.2 1.3 0.1 2.5 0.3 1.2 0.2 2.4 0.5 0.8 0.8 1.4 1.8 0.6 0.9 1 1.9 0.5 1.1 0.7 2.2 0.3 1.1 0.3 2.2c-6.9 7.8-37.8 21.8-49.5 28.8-1 0.6-1.1 1.3-0.4 2.2 10.7 10.8 25.9 24 39.8 27.8q0.1 0.8 0 1.6 0 0.7-0.2 1.5-0.2 0.8-0.5 1.5-0.2 0.7-0.6 1.4c-4.3 2.5-12.9 7-19 7.4-16.8-15.8-27.6-25.9-39.5-36.5q-0.3-0.2-0.7-0.2-0.3-0.1-0.7 0-0.3 0.1-0.6 0.3-0.3 0.2-0.4 0.5-1.6 3.9-3.1 7.7-1.4 3.9-2.7 7.9-1.2 3.9-2.4 7.9-1.1 4-2 8-1.8 1.3-3.8 2.3-1.9 1-4 1.7-2 0.8-4.1 1.3-2.2 0.6-4.4 0.8c-2.6-0.6-10.1-2.9-11.3-5.1 4.6-6.3 15.8-27.6 32.8-71 14-35.8 19.4-51.4 16.3-56.3q2.4-1.1 4.9-2.1 2.6-1 5.1-1.7 2.6-0.8 5.3-1.4 2.6-0.6 5.3-0.9 1.1 0.6 2.2 1.4 1.1 0.8 2.1 1.7 1 0.9 1.9 2 0.9 1 1.6 2.1c-11.2 24.2-20.5 45.2-34.6 80q-0.1 0.6 0 1.2 0.2 0.5 0.7 0.9 0.5 0.4 1.1 0.5 0.6 0.1 1.1-0.1zm129.2-39.9c14.2-0.3 30.9 2.1 32.4 10.7 2 13.6-26.8 33.4-62.6 28q-1.8 2.5-3.2 5.4-1.3 2.8-2.1 5.8-0.8 3.1-1.1 6.2-0.3 3.1 0 6.2c0.7 4.5 4.5 7.6 11.6 7.3 26.6-1 61.7-18.2 80.8-34.2 1.2 1.3 0.8 2.2-1.2 4.4-3.6 3.8-11 8.3-12 12.8-21.3 19.1-56.2 33-79.9 33.7-14.9 0.4-21.4-4.6-22.3-13.6-2.1-21.6 19.7-53.6 45.2-70.5q1.8-0.5 3.6-0.9 1.8-0.4 3.6-0.6 1.8-0.3 3.6-0.5 1.8-0.1 3.6-0.2zm-27.5 33.2c17.4-0.4 41.8-8.7 40.8-18.5-0.5-4.8-12.6-5.7-20.9-5.2q-2.9 2.6-5.6 5.4-2.8 2.7-5.3 5.7-2.5 3-4.7 6.1-2.3 3.2-4.3 6.5zm294.9-6.5c-9.8 11.8-32.2 39.1-33.3 47.6q-1.8 1.3-3.7 2.4-1.9 1.2-4 2.1-2 0.9-4.1 1.5-2.2 0.6-4.4 1-1.2-0.5-2.5-1.1-1.2-0.5-2.4-1.2-1.2-0.7-2.3-1.5-1.1-0.8-2.1-1.7-1.4-5.4-2.7-10.9-1.2-5.4-2.2-10.9-1-5.5-1.8-11.1-0.8-5.5-1.4-11c-1.4-13.9-2.3-20.6-3.3-29.1 0-2.1-1.6-2.8-3.3-1.3-18.7 20.5-51.3 51.3-74.8 77.8q-2.3 1.1-4.7 1.9-2.3 0.8-4.8 1.4-2.4 0.6-4.9 1-2.4 0.3-4.9 0.5c-4.9-3.5-5.9-10-6.6-17.5-2.5-24.1 17.8-71 16.3-86.5q0-0.6 0-1.2 0.1-0.5 0.2-1.1 0.2-0.5 0.4-1.1 0.3-0.5 0.6-0.9 1.6-1.2 3.3-2.3 1.7-1 3.5-1.8 1.8-0.9 3.6-1.6 1.9-0.6 3.8-1.1 1.5 0.5 2.7 1.3 1.3 0.9 2.3 2 1 1.1 1.8 2.4 0.8 1.3 1.2 2.7c0.7 7.4-3.9 22.1-8.7 37.3-4.8 15.2-9.3 30.8-8.3 40.4 0 1.2 1.4 1.6 2.5 0.4 28.8-23.5 59.8-58.1 71.1-74.4q2.3-1.3 4.7-2.4 2.5-1.1 5-1.9 2.5-0.9 5.1-1.5 2.6-0.7 5.2-1.1 1.2 0.5 2.3 1 1.1 0.6 2.1 1.3 1.1 0.6 2.1 1.4 0.9 0.8 1.8 1.6c1 9.3 1.4 28.6 3.8 52.4q0.2 2.2 0.5 4.5 0.4 2.2 0.8 4.4 0.4 2.2 0.9 4.4 0.5 2.2 1.1 4.4c0.6 2 2.3 2.1 3.4 0.8 20-24.1 50.2-58.8 67.5-80.1 3.7-2 4.6-4.3 9.4-5.1q1.2 0.2 2.3 0.6 1.1 0.4 2.1 1.1 1 0.7 1.8 1.5 0.8 0.9 1.4 1.9c-7.3 14.8-35.7 44.6-45.5 56.4zm164.5-22.8c-0.8 18.2-1.9 27.9-0.9 41.5q0 0.8 0.1 1.6 0.1 0.8 0.2 1.5 0.2 0.8 0.4 1.6 0.2 0.8 0.5 1.5c0.4 1.2 1.4 1.6 2.3 0.4q7.1-7.8 14.6-15.2 7.5-7.5 15.4-14.6 7.8-7.1 15.9-13.8 8.2-6.8 16.6-13.2c4.3 0.4 11 0.9 14.4 2.9-33.6 26.2-48.2 43.7-70.1 72.9q-2.4 1.5-4.8 2.7-2.5 1.2-5.1 2.1-2.7 0.9-5.3 1.6-2.7 0.6-5.5 1-1.8-3.2-3.3-6.5-1.5-3.4-2.6-6.9-1.1-3.5-1.7-7.1-0.7-3.7-1-7.3-0.2-3.9-0.4-7.8-0.1-3.8-0.2-7.7-0.1-3.9 0-7.8 0.1-3.8 0.2-7.7c0-2.8-9 5.3-10.4 3.4-0.8-1.2 1.3-5.3 1.4-7.8q2.1-2.1 4.2-4.2 2.2-2 4.5-4 2.2-1.9 4.5-3.8 2.4-1.8 4.8-3.6 1.4 0.2 2.8 0.4 1.4 0.3 2.8 0.6 1.4 0.4 2.7 0.9 1.4 0.5 2.7 1zm242.5-10.5q0.4 0.7 0.7 1.5 0.2 0.7 0.5 1.5 0.2 0.8 0.3 1.6 0.1 0.8 0.2 1.6-1.3 1.4-2.9 2.5-1.5 1.2-3.1 2.2-1.7 0.9-3.5 1.6-1.8 0.7-3.6 1.2-1.8-1.2-3.8-2.1-1.9-1-3.9-1.7-2-0.7-4.1-1.1-2.1-0.4-4.3-0.6-1.2 0-2.4 0.2-1.2 0.1-2.3 0.4-1.2 0.4-2.3 0.8-1.2 0.4-2.2 1c-6.8 3.9-9.8 9.8-9.4 14.3 0.4 3.7 2.6 5.2 18.1 5.8 16.3 0.9 25.4 3.9 26.2 12.4 1.8 17.6-29.1 41.4-66 41.8-15.4 0-21-1.2-22.5-6-1.6-4.9 1.6-13.3 9.6-25q1.5-0.4 3-0.6 1.5-0.1 3-0.1 1.6 0 3.1 0.1 1.5 0.2 3 0.6-1.1 1.6-1.9 3.5-0.8 1.8-1.3 3.7-0.6 1.9-0.8 3.9-0.2 1.9-0.2 3.9c0.7 4.1 4.6 5.7 13.1 5.5 20.2-0.5 34.9-12.5 33.6-24.7-0.4-4.2-3.3-5.6-19.2-6-15.9-0.4-21.8-2.9-22.5-9.2-1.2-12 25.6-37.8 44.8-38.4q2.9 0.1 5.8 0.4 2.9 0.3 5.8 0.7 2.9 0.5 5.8 1.2 2.8 0.6 5.6 1.5zm-305.3 10.1q0.8-0.6 1.6-1.1 0.8-0.5 1.7-1 0.9-0.4 1.8-0.8 0.9-0.4 1.8-0.8 1.2 0.1 2.3 0.4 1.2 0.2 2.3 0.6 1.1 0.4 2.1 1 1.1 0.5 2 1.2c-8.7 16.7-18.4 36.9-18.9 52 0 3.4 1.4 4.8 4.7 4.9 2.1 0 4.8-0.2 9.6-4.6q0.3 0.3 0.4 0.6 0.2 0.3 0.3 0.7 0.1 0.3 0.1 0.7 0.1 0.4 0 0.7c-0.4 1.6 0 0.9-0.7 1.9-2.4 2.9-0.2 4.4-3 7.2-9.5 7.4-15.5 9.7-23.2 9.1q-1.4-0.1-2.8-0.7-1.3-0.5-2.3-1.5-1.1-0.9-1.8-2.2-0.7-1.2-1-2.6-0.5-2.8-0.6-5.7 0-2.8 0.3-5.6 0.3-2.9 1-5.6 0.7-2.8 1.7-5.5c0.5-1-0.4-2.1-1.6-0.9-19.7 20.5-41 32-55.9 32.5-1.5 0-3-0.4-4.3-0.9-1.4-0.6-2.6-1.4-3.7-2.4-1.1-1-2-2.2-2.7-3.5-0.7-1.3-1.1-2.7-1.3-4.2-1.3-17.9 11.6-43.2 43.8-61.5q3.1-1.7 6.4-3 3.4-1.3 6.8-2.1 3.5-0.9 7.1-1.3 3.5-0.3 7.1-0.2 2.4 0.1 4.8 0.4 2.4 0.4 4.8 0.9 2.3 0.5 4.7 1.2 2.3 0.8 4.5 1.7zm-66.3 52.7c0.6 3.1 4.7 3.9 6.9 3.9 10.4 0 33.6-16.8 50.7-46.8q-1.2-1.5-2.8-2.7-1.5-1.1-3.3-1.9-1.8-0.7-3.7-1.1-1.9-0.3-3.9-0.2c-14.3 0.3-47.9 28.8-43.9 48.8zm251.5-63.4c14.2-0.3 26.7 1.8 28.3 10.5 2 13.5-20.2 39.8-63.6 34.5q-1.1 2.1-1.9 4.4-0.7 2.3-1 4.7-0.3 2.4-0.2 4.8 0.2 2.4 0.8 4.7 0.5 1.8 1.5 3.3 1.1 1.5 2.7 2.6 1.5 1 3.3 1.4 1.8 0.5 3.7 0.2 5.6-0.1 11.2-0.9 5.6-0.8 11.1-2.3 5.5-1.4 10.8-3.6 5.2-2.1 10.2-4.8c1.7 1.4-1.9 3.2-1.8 4.1 0.2 1 2.4 1 0 3-13 9.1-38.7 19.3-54.6 19.6-12.3 0.3-19.3-4.4-20.2-13.4-2.1-21.5 18.6-52.4 44.1-69.3q1.9-0.7 3.8-1.3 1.9-0.6 3.8-1 2-0.5 4-0.7 1.9-0.3 3.9-0.3zm-31.8 38.8c25-1.2 41.1-14.3 40.1-24.1-0.5-4.7-8.7-6-16.9-5.4-6.1 4.6-17.5 20.3-23.3 29.5zm-711.3 36.2c3.2-2 13-8.9 13-8.9 1.1 2.6-5.7 7.9-6.5 10.5q0 0.8-0.2 1.6-0.2 0.7-0.6 1.4-0.5 0.7-1 1.3-0.6 0.6-1.3 1c-8.4 5.8-23.8 15.3-37.1 14.5-3.6-0.2-6.2-2.8-7.6-7.5q-0.4-3-0.5-6-0.1-3 0.2-6 0.3-2.9 1-5.9 0.7-2.9 1.8-5.7c0.6-0.9-1.1-2.2-2.3-0.9-18.6 19.9-42.1 33.7-57.5 33.7-4 0-12.9-1.7-13.5-8.1-1.8-18.2 12.7-49.5 48.7-68.8q3.4-1.9 7-3.3 3.6-1.3 7.4-2.3 3.8-0.9 7.6-1.3 3.9-0.5 7.7-0.5 2 0.3 4 0.7 2 0.4 3.9 0.9 2 0.6 3.9 1.2 1.8 0.7 3.7 1.6 1.1-0.8 2.3-1.4 1.1-0.7 2.3-1.3 1.2-0.6 2.5-1.2 1.2-0.5 2.5-1 1.2 0.1 2.4 0.4 1.1 0.2 2.3 0.6 1.1 0.4 2.2 1 1.1 0.6 2.1 1.3c-9 17.2-22.9 45.1-21.4 60.6 0.3 3.4 2.2 5.3 4.6 5.3 3.3 0 10.9-3.6 16.5-7.5zm-25.2-46.4c-2.3-2.9-9.8-7.2-13.2-7-22.9 1-50.8 35.8-48.9 54.7q0.2 1 0.8 1.9 0.6 0.9 1.5 1.5 1 0.5 2 0.7 1.1 0.2 2.1-0.1c12.7-5.2 38.1-20.8 55.7-51.7z"/>
</svg>